<svg xmlns="http://www.w3.org/2000/svg" fill="none" viewBox="0 0 842 210">
  <path fill="#E5CB3E" d="M182 0h100v30H182V0ZM150 60h132v30H150V60ZM70 60h50v30H70V60ZM80 120h202v30H80v-30ZM0 120h50v30H0v-30ZM130 180h152v30H130v-30ZM707 207.2V2.8h64.834c13.659 0 25.447 2.52 35.364 7.56 10.104 5.04 17.962 12.133 23.576 21.28 5.613 8.96 8.419 19.6 8.419 31.92 0 13.44-3.461 25.293-10.384 35.56-6.736 10.267-15.905 17.547-27.505 21.84L842 207.2h-39.293L767.062 126h-24.979v81.2H707Zm35.083-112h29.751c9.917 0 17.682-2.707 23.295-8.12 5.613-5.413 8.42-12.88 8.42-22.4 0-9.707-2.807-17.267-8.42-22.68-5.613-5.6-13.378-8.4-23.295-8.4h-29.751v61.6ZM602.701 210c-13.097 0-24.605-2.427-34.522-7.28-9.729-5.04-17.307-12.04-22.733-21-5.24-9.147-7.859-19.88-7.859-32.2V60.48c0-12.507 2.619-23.24 7.859-32.2 5.426-8.96 13.004-15.867 22.733-20.72C578.096 2.52 589.604 0 602.701 0c13.285 0 24.699 2.52 34.242 7.56 9.729 4.853 17.307 11.76 22.733 20.72 5.427 8.96 8.14 19.693 8.14 32.2h-35.364c0-9.707-2.62-17.08-7.859-22.12-5.052-5.04-12.349-7.56-21.892-7.56-9.542 0-16.933 2.52-22.172 7.56-5.239 5.04-7.859 12.32-7.859 21.84v89.32c0 9.52 2.62 16.893 7.859 22.12 5.239 5.04 12.63 7.56 22.172 7.56 9.543 0 16.84-2.52 21.892-7.56 5.239-5.227 7.859-12.6 7.859-22.12h35.364c0 12.133-2.713 22.773-8.14 31.92-5.426 9.147-13.004 16.24-22.733 21.28-9.543 4.853-20.957 7.28-34.242 7.28ZM415.607 207.2V35.28H362V2.8h142.578v32.48h-53.607V207.2h-35.364Z"/>
</svg>
